<mxfile host="app.diagrams.net" agent="Mozilla/5.0 (Windows NT 10.0; Win64; x64) AppleWebKit/537.36 (KHTML, like Gecko) Chrome/133.0.0.0 Safari/537.36 Edg/133.0.0.0" version="26.1.0">
  <diagram name="第 1 页" id="iCX5CgVmqVBtVOYxCdOK">
    <mxGraphModel dx="2183" dy="829" grid="1" gridSize="10" guides="1" tooltips="1" connect="1" arrows="1" fold="1" page="1" pageScale="1" pageWidth="827" pageHeight="1169" math="0" shadow="0">
      <root>
        <mxCell id="0" />
        <mxCell id="1" parent="0" />
        <mxCell id="Fd1okdUvfXdcwbYZv1OX-1" value="" style="rounded=0;whiteSpace=wrap;html=1;dashed=1;" vertex="1" parent="1">
          <mxGeometry x="-10" y="180" width="120" height="660" as="geometry" />
        </mxCell>
        <mxCell id="Fd1okdUvfXdcwbYZv1OX-2" value="" style="rounded=0;whiteSpace=wrap;html=1;" vertex="1" parent="1">
          <mxGeometry x="120" y="180" width="330" height="660" as="geometry" />
        </mxCell>
        <mxCell id="Fd1okdUvfXdcwbYZv1OX-3" value="名称搜索" style="rounded=1;whiteSpace=wrap;html=1;" vertex="1" parent="1">
          <mxGeometry x="210" y="197" width="230" height="30" as="geometry" />
        </mxCell>
        <mxCell id="Fd1okdUvfXdcwbYZv1OX-4" value="地图页" style="rounded=0;whiteSpace=wrap;html=1;" vertex="1" parent="1">
          <mxGeometry x="120" y="800" width="170" height="40" as="geometry" />
        </mxCell>
        <mxCell id="Fd1okdUvfXdcwbYZv1OX-5" value="动态页" style="rounded=0;whiteSpace=wrap;html=1;" vertex="1" parent="1">
          <mxGeometry x="290" y="800" width="160" height="40" as="geometry" />
        </mxCell>
        <mxCell id="Fd1okdUvfXdcwbYZv1OX-6" value="icon" style="ellipse;whiteSpace=wrap;html=1;aspect=fixed;dashed=1;" vertex="1" parent="1">
          <mxGeometry y="190" width="44" height="44" as="geometry" />
        </mxCell>
        <mxCell id="Fd1okdUvfXdcwbYZv1OX-7" value="" style="rounded=0;whiteSpace=wrap;html=1;dashed=1;" vertex="1" parent="1">
          <mxGeometry x="-10" y="250" width="120" height="30" as="geometry" />
        </mxCell>
        <mxCell id="Fd1okdUvfXdcwbYZv1OX-8" value="名称" style="text;html=1;align=center;verticalAlign=middle;whiteSpace=wrap;rounded=0;" vertex="1" parent="1">
          <mxGeometry x="60" y="190" width="40" height="20" as="geometry" />
        </mxCell>
        <mxCell id="Fd1okdUvfXdcwbYZv1OX-9" value="状态" style="text;html=1;align=center;verticalAlign=middle;whiteSpace=wrap;rounded=0;" vertex="1" parent="1">
          <mxGeometry x="60" y="214" width="40" height="20" as="geometry" />
        </mxCell>
        <mxCell id="Fd1okdUvfXdcwbYZv1OX-10" value="打开编辑模式" style="rounded=0;whiteSpace=wrap;html=1;dashed=1;" vertex="1" parent="1">
          <mxGeometry x="-10" y="280" width="120" height="30" as="geometry" />
        </mxCell>
        <mxCell id="Fd1okdUvfXdcwbYZv1OX-11" value="图鉴" style="rounded=0;whiteSpace=wrap;html=1;dashed=1;" vertex="1" parent="1">
          <mxGeometry x="-10" y="310" width="120" height="30" as="geometry" />
        </mxCell>
        <mxCell id="Fd1okdUvfXdcwbYZv1OX-12" value="" style="rounded=0;whiteSpace=wrap;html=1;dashed=1;" vertex="1" parent="1">
          <mxGeometry x="-10" y="340" width="120" height="30" as="geometry" />
        </mxCell>
        <mxCell id="Fd1okdUvfXdcwbYZv1OX-13" value="收缩框" style="text;html=1;align=center;verticalAlign=middle;whiteSpace=wrap;rounded=0;" vertex="1" parent="1">
          <mxGeometry x="-10" y="160" width="40" height="20" as="geometry" />
        </mxCell>
        <mxCell id="Fd1okdUvfXdcwbYZv1OX-14" value="地区选择" style="rounded=1;whiteSpace=wrap;html=1;" vertex="1" parent="1">
          <mxGeometry x="130" y="197" width="70" height="30" as="geometry" />
        </mxCell>
        <mxCell id="Fd1okdUvfXdcwbYZv1OX-15" value="" style="rounded=1;whiteSpace=wrap;html=1;dashed=1;" vertex="1" parent="1">
          <mxGeometry x="220" y="203" width="20" height="18" as="geometry" />
        </mxCell>
        <mxCell id="Fd1okdUvfXdcwbYZv1OX-16" value="搜索" style="rounded=1;whiteSpace=wrap;html=1;" vertex="1" parent="1">
          <mxGeometry x="400" y="197" width="40" height="30" as="geometry" />
        </mxCell>
        <mxCell id="Fd1okdUvfXdcwbYZv1OX-17" value="" style="rounded=0;whiteSpace=wrap;html=1;" vertex="1" parent="1">
          <mxGeometry x="120" y="1000" width="330" height="660" as="geometry" />
        </mxCell>
        <mxCell id="Fd1okdUvfXdcwbYZv1OX-18" value="名称搜索" style="rounded=1;whiteSpace=wrap;html=1;" vertex="1" parent="1">
          <mxGeometry x="210" y="1017" width="230" height="30" as="geometry" />
        </mxCell>
        <mxCell id="Fd1okdUvfXdcwbYZv1OX-19" value="地区选择" style="rounded=1;whiteSpace=wrap;html=1;" vertex="1" parent="1">
          <mxGeometry x="130" y="1017" width="70" height="30" as="geometry" />
        </mxCell>
        <mxCell id="Fd1okdUvfXdcwbYZv1OX-20" value="" style="rounded=1;whiteSpace=wrap;html=1;dashed=1;" vertex="1" parent="1">
          <mxGeometry x="220" y="1023" width="20" height="18" as="geometry" />
        </mxCell>
        <mxCell id="Fd1okdUvfXdcwbYZv1OX-21" value="搜索" style="rounded=1;whiteSpace=wrap;html=1;" vertex="1" parent="1">
          <mxGeometry x="400" y="1017" width="40" height="30" as="geometry" />
        </mxCell>
        <mxCell id="Fd1okdUvfXdcwbYZv1OX-22" value="&lt;font style=&quot;font-size: 32px;&quot;&gt;+&lt;/font&gt;" style="ellipse;whiteSpace=wrap;html=1;aspect=fixed;" vertex="1" parent="1">
          <mxGeometry x="260" y="1590" width="50" height="50" as="geometry" />
        </mxCell>
        <mxCell id="Fd1okdUvfXdcwbYZv1OX-23" value="" style="rounded=0;whiteSpace=wrap;html=1;dashed=1;" vertex="1" parent="1">
          <mxGeometry x="210" y="1270" width="120" height="60" as="geometry" />
        </mxCell>
        <mxCell id="Fd1okdUvfXdcwbYZv1OX-24" value="" style="rounded=0;whiteSpace=wrap;html=1;" vertex="1" parent="1">
          <mxGeometry x="270" y="1140" width="120" height="230" as="geometry" />
        </mxCell>
        <mxCell id="Fd1okdUvfXdcwbYZv1OX-25" value="名称：" style="rounded=0;whiteSpace=wrap;html=1;" vertex="1" parent="1">
          <mxGeometry x="270" y="1140" width="120" height="40" as="geometry" />
        </mxCell>
        <mxCell id="Fd1okdUvfXdcwbYZv1OX-26" value="类型：" style="rounded=0;whiteSpace=wrap;html=1;" vertex="1" parent="1">
          <mxGeometry x="270" y="1180" width="120" height="40" as="geometry" />
        </mxCell>
        <mxCell id="Fd1okdUvfXdcwbYZv1OX-27" value="是否收费：" style="rounded=0;whiteSpace=wrap;html=1;" vertex="1" parent="1">
          <mxGeometry x="270" y="1220" width="120" height="40" as="geometry" />
        </mxCell>
        <mxCell id="Fd1okdUvfXdcwbYZv1OX-28" value="价格：" style="rounded=0;whiteSpace=wrap;html=1;" vertex="1" parent="1">
          <mxGeometry x="270" y="1260" width="120" height="40" as="geometry" />
        </mxCell>
        <mxCell id="Fd1okdUvfXdcwbYZv1OX-29" value="备注：" style="rounded=0;whiteSpace=wrap;html=1;" vertex="1" parent="1">
          <mxGeometry x="270" y="1300" width="120" height="40" as="geometry" />
        </mxCell>
      </root>
    </mxGraphModel>
  </diagram>
</mxfile>
